# xmcd
#
# Track frame offsets:
#	150
#	12197
#	24457
#	38645
#	51025
#	63717
#	74870
#	85537
#	96425
#	105997
#	115880
#	127155
#	140200
#	152740
#
# Disc length: 2204 seconds
#
# Revision: 0
# Processed by: cddbd v1.5.2PL0 Copyright (c) Steve Scherf et al.
# Submitted via: EZCDAudioConverter 2.1.5.1
#
DISCID=c4089a0e
DTITLE=Guy Mitchell - The Great Guy Mitchell
DYEAR=1900
DGENRE=
TTITLE0=My Heart Cries For You
TTITLE1=The Roving Kind
TTITLE2=Sparrow In The Tree Top
TTITLE3=My Truly, Truly Fair
TTITLE4=Pittsburgh, Pennsylvania
TTITLE5=Cloud Lucky Seven
TTITLE6=Sippin' Soda
TTITLE7=Singing The Blues
TTITLE8=Knee Deep In The Blues
TTITLE9=Rock-A-Billy
TTITLE10=Call Rosie On The Phone
TTITLE11=My Shoes Keep Walking Back To You
TTITLE12=Side By Side
TTITLE13=Music Music Music
EXTD=
EXTT0=
EXTT1=
EXTT2=
EXTT3=
EXTT4=
EXTT5=
EXTT6=
EXTT7=
EXTT8=
EXTT9=
EXTT10=
EXTT11=
EXTT12=
EXTT13=
PLAYORDER=
